<?xml version="1.0" encoding="UTF-8" standalone="no"?>
<!DOCTYPE svg PUBLIC "-//W3C//DTD SVG 1.1//EN" "http://www.w3.org/Graphics/SVG/1.1/DTD/svg11.dtd">
<svg width="100%" height="100%" viewBox="0 0 128 128" version="1.1" xmlns="http://www.w3.org/2000/svg" xmlns:xlink="http://www.w3.org/1999/xlink" xml:space="preserve" xmlns:serif="http://www.serif.com/" style="fill-rule:evenodd;clip-rule:evenodd;stroke-linejoin:round;stroke-miterlimit:2;">
    <rect x="4.476" y="5.354" width="118.63" height="117.626" style="fill:white;"/>
    <path d="M103.541,47.051C102.686,46.357 101.564,46.079 100.484,46.293C77.39,50.876 60.69,71.026 60.69,94.453L60.69,104.692L19.684,104.692C17.648,104.692 16,106.327 16,108.345C16,110.364 17.648,112 19.684,112L64.373,112C66.407,112 68.057,110.364 68.057,108.345L68.057,103.94C77.213,101.562 85.491,96.592 91.895,89.63C92.798,88.652 93.095,87.266 92.672,86.007L91.584,82.766L95.116,82.766C96.434,82.766 97.652,82.068 98.308,80.935C102.617,73.498 104.887,65.054 104.889,56.459L104.889,49.876C104.889,48.78 104.395,47.742 103.541,47.049L103.541,47.051ZM97.522,56.462C97.52,63.069 95.944,69.581 92.924,75.458L86.471,75.458C85.289,75.458 84.178,76.021 83.484,76.974C82.793,77.924 82.604,79.153 82.978,80.267L84.98,86.222C80.225,90.894 74.422,94.362 68.055,96.336L68.055,94.452C68.055,76.112 80.204,60.007 97.522,54.583L97.522,56.462Z" style="fill:rgb(0,128,128);fill-rule:nonzero;"/>
    <rect x="5.333" y="3.556" width="119.111" height="32" style="fill:rgb(0,128,128);fill-opacity:0.2;fill-rule:nonzero;"/>
    <path d="M116.75,0L11.25,0C5.081,0.007 0.007,5.081 0,11.25L0,116.75C0.007,122.919 5.081,127.993 11.25,128L116.75,128C122.919,127.993 127.993,122.919 128,116.75L128,11.25C127.993,5.081 122.919,0.007 116.75,0ZM11.25,7.5L116.75,7.5C118.818,7.5 120.501,9.182 120.501,11.252L120.501,30L7.499,30L7.499,11.25C7.499,9.182 9.18,7.499 11.25,7.499L11.25,7.5ZM116.75,120.498L11.25,120.498C9.193,120.496 7.501,118.804 7.499,116.747L7.499,37.502L120.5,37.502L120.5,116.752C120.5,118.82 118.818,120.503 116.748,120.503L116.75,120.498Z" style="fill:rgb(0,128,128);fill-rule:nonzero;"/>
    <path d="M23.111,19.556C23.111,21.506 21.506,23.111 19.556,23.111C17.605,23.111 16,21.506 16,19.556C16,17.605 17.605,16 19.556,16C21.506,16 23.111,17.605 23.111,19.556ZM37.333,19.556C37.333,21.506 35.728,23.111 33.778,23.111C31.827,23.111 30.222,21.506 30.222,19.556C30.222,17.605 31.827,16 33.778,16C35.728,16 37.333,17.605 37.333,19.556ZM53.333,19.556C53.333,21.506 51.728,23.111 49.778,23.111C47.827,23.111 46.222,21.506 46.222,19.556C46.222,17.605 47.827,16 49.778,16C51.728,16 53.333,17.605 53.333,19.556ZM69.63,23.111L108.148,23.111C110.276,23.111 112,21.52 112,19.556C112,17.591 110.276,16 108.148,16L69.63,16C67.502,16 65.778,17.591 65.778,19.556C65.778,21.52 67.502,23.111 69.63,23.111Z" style="fill:rgb(0,128,128);fill-rule:nonzero;"/>
</svg>
